<svg width="32" height="32" viewBox="0 0 32 32" fill="none" xmlns="http://www.w3.org/2000/svg">
  <rect x="16" y="1.34" width="20.73" height="20.73" transform="rotate(45 16 1.34)" fill="#556B2F" stroke="white" stroke-opacity="0.2" stroke-width="1"/>
  <path d="M22 14.5c0 4.17-2.92 6.25-6.38 7.46a.83.83 0 0 1-.56-.01C11.67 20.75 8.75 18.67 8.75 14.5V8.67a.83.83 0 0 1 .83-.83c1.67 0 3.75-1 5.2-2.27a.98.98 0 0 1 1.27 0c1.45 1.27 3.53 2.27 5.2 2.27a.83.83 0 0 1 .83.83z" stroke="white" stroke-width="1.67" stroke-linecap="round" stroke-linejoin="round"/>
</svg>
